<svg xmlns="http://www.w3.org/2000/svg" version="1.1" xmlns:xlink="http://www.w3.org/1999/xlink" xmlns:svgjs="http://svgjs.com/svgjs" width="1440" height="560" preserveAspectRatio="none" viewBox="0 0 1440 560"><g mask="url(&quot;#SvgjsMask1405&quot;)" fill="none"><rect width="1440" height="560" x="0" y="0" fill="url(#SvgjsLinearGradient1406)"></rect><path d="M 0,94 C 144,162.4 432,439.6 720,436 C 1008,432.4 1296,148 1440,76L1440 560L0 560z" fill="rgba(2, 30, 61, 1)"></path><path d="M 0,189 C 72,219.4 216,325.2 360,341 C 504,356.8 576,227.6 720,268 C 864,308.4 936,556.2 1080,543 C 1224,529.8 1368,270.2 1440,202L1440 560L0 560z" fill="rgba(9, 2, 48, 1)"></path></g><defs><mask id="SvgjsMask1405"><rect width="1440" height="560" fill="#ffffff"></rect></mask><linearGradient x1="15.28%" y1="-39.29%" x2="84.72%" y2="139.29%" gradientUnits="userSpaceOnUse" id="SvgjsLinearGradient1406"><stop stop-color="#0e2a47" offset="0"></stop><stop stop-color="rgba(42, 108, 9, 1)" offset="1"></stop></linearGradient></defs></svg>